<svg width="20" height="20" viewBox="0 0 20 20" fill="none" xmlns="http://www.w3.org/2000/svg">
<path d="M6.29263 8.57659C6.29263 8.79115 6.3153 8.96475 6.35497 9.09234C6.4003 9.21993 6.45661 9.35903 6.53594 9.50962C6.56428 9.55599 6.57561 9.60235 6.57561 9.64296C6.57561 9.70083 6.54161 9.75869 6.4683 9.81692L6.11201 10.0602C6.06101 10.0951 6.01037 10.1124 5.96503 10.1124C5.90837 10.1124 5.85206 10.0832 5.79539 10.0311C5.71606 9.94415 5.64841 9.85142 5.59175 9.75869C5.53508 9.66022 5.47877 9.55023 5.41644 9.41689C4.97551 9.9499 4.42124 10.2166 3.754 10.2166C3.27907 10.2166 2.90012 10.0775 2.62316 9.79931C2.34621 9.52112 2.2049 9.15021 2.2049 8.68657C2.2049 8.19417 2.37454 7.79414 2.71949 7.49296C3.06445 7.19177 3.52238 7.04081 4.10462 7.04081C4.29693 7.04081 4.49491 7.05807 4.70386 7.08718C4.91282 7.11629 5.12779 7.16266 5.3541 7.21477V6.79174C5.3541 6.35146 5.26379 6.04416 5.08848 5.86446C4.90751 5.68475 4.60222 5.59777 4.16695 5.59777C3.96898 5.59777 3.76569 5.62077 3.55638 5.67325C3.34707 5.72536 3.14378 5.78898 2.9458 5.87021C2.85549 5.91082 2.78749 5.93382 2.74783 5.94568C2.70816 5.95718 2.67983 5.96294 2.65751 5.96294C2.57818 5.96294 2.53887 5.90507 2.53887 5.78323V5.49929C2.53887 5.40656 2.5502 5.3372 2.57854 5.29658C2.60687 5.25597 2.65787 5.21536 2.73685 5.17474C2.93482 5.07051 3.17211 4.98354 3.44942 4.91381C3.72638 4.83833 4.02033 4.80383 4.33128 4.80383C5.00419 4.80383 5.49612 4.96017 5.81274 5.27322C6.1237 5.58627 6.28201 6.06141 6.28201 6.69865V8.57623L6.29263 8.57659ZM3.99696 9.45715C4.1836 9.45715 4.37591 9.42228 4.5792 9.35292C4.78284 9.28355 4.96382 9.15596 5.11646 8.982C5.20677 8.87202 5.27477 8.75018 5.30877 8.61109C5.34277 8.472 5.36544 8.30379 5.36544 8.10683V7.86351C5.20146 7.8229 5.02615 7.78803 4.84517 7.76503C4.6642 7.74203 4.48889 7.73017 4.31358 7.73017C3.93462 7.73017 3.65767 7.80564 3.47102 7.96199C3.28438 8.11833 3.19407 8.33865 3.19407 8.62834C3.19407 8.90078 3.26207 9.10348 3.40338 9.24258C3.53902 9.38778 3.737 9.45715 3.99696 9.45715ZM8.53731 10.0832C8.43567 10.0832 8.36767 10.066 8.32234 10.0254C8.277 9.99052 8.23769 9.90965 8.20369 9.79931L6.87488 5.31995C6.84088 5.20422 6.82388 5.12874 6.82388 5.08812C6.82388 4.9954 6.86921 4.94328 6.95952 4.94328H7.51378C7.6211 4.94328 7.69476 4.96053 7.73443 5.00115C7.77976 5.03601 7.81341 5.11688 7.8474 5.22722L8.79727 9.06359L9.67913 5.22722C9.70746 5.11149 9.74146 5.03601 9.78644 5.00115C9.83178 4.96628 9.91075 4.94328 10.0128 4.94328H10.465C10.5723 4.94328 10.646 4.96053 10.6913 5.00115C10.7367 5.03601 10.776 5.11688 10.7986 5.22722L11.6918 9.10995L12.67 5.22722C12.704 5.11149 12.7437 5.03601 12.783 5.00115C12.8283 4.96628 12.9017 4.94328 13.0037 4.94328H13.5296C13.6199 4.94328 13.6709 4.98965 13.6709 5.08812C13.6709 5.11724 13.6652 5.14599 13.6596 5.18085C13.6539 5.21572 13.6426 5.26208 13.6199 5.3257L12.2574 9.80506C12.2234 9.92079 12.1838 9.99627 12.1388 10.0311C12.0938 10.066 12.0201 10.089 11.9238 10.089H11.4375C11.3302 10.089 11.2566 10.0717 11.2112 10.0311C11.1659 9.99052 11.1266 9.9154 11.1039 9.79931L10.2277 6.06141L9.3572 9.79356C9.32887 9.90929 9.29487 9.98476 9.24989 10.0254C9.20455 10.066 9.12558 10.0832 9.02358 10.0832H8.53731ZM15.8026 10.2396C15.5086 10.2396 15.2147 10.2047 14.9321 10.1354C14.6494 10.066 14.4288 9.99052 14.2818 9.90354C14.1915 9.85142 14.1292 9.79356 14.1065 9.74144C14.0838 9.68933 14.0725 9.63146 14.0725 9.57935V9.28391C14.0725 9.16207 14.1178 9.1042 14.2025 9.1042C14.2365 9.1042 14.2705 9.10995 14.3041 9.12146C14.3381 9.13296 14.3888 9.15632 14.4454 9.17932C14.6378 9.2663 14.8467 9.33567 15.0674 9.38203C15.2937 9.42839 15.514 9.4514 15.7403 9.4514C16.0965 9.4514 16.3735 9.38778 16.5658 9.26019C16.7581 9.1326 16.8598 8.94714 16.8598 8.70957C16.8598 8.54747 16.8088 8.41413 16.7071 8.30379C16.6055 8.19381 16.4132 8.09533 16.1362 8.0026L15.3163 7.74167C14.9037 7.60833 14.5984 7.41137 14.4118 7.15044C14.2252 6.89561 14.1292 6.61168 14.1292 6.31013C14.1292 6.06681 14.1802 5.85224 14.2818 5.66678C14.3835 5.48132 14.5195 5.31923 14.6888 5.19164C14.8584 5.05829 15.0507 4.95981 15.2767 4.89045C15.503 4.82144 15.7403 4.79233 15.9892 4.79233C16.1135 4.79233 16.2435 4.79808 16.3682 4.81533C16.4982 4.83258 16.6168 4.85594 16.7358 4.87895C16.8488 4.90806 16.9565 4.93681 17.0581 4.97167C17.1597 5.00654 17.2391 5.04104 17.2957 5.0759C17.3751 5.12227 17.4314 5.16863 17.4654 5.22075C17.4994 5.26711 17.5164 5.33073 17.5164 5.41196V5.68439C17.5164 5.80623 17.4711 5.86985 17.3864 5.86985C17.3411 5.86985 17.2678 5.84685 17.1714 5.80048C16.8491 5.64989 16.4872 5.57441 16.0859 5.57441C15.7636 5.57441 15.5093 5.62652 15.334 5.73651C15.1587 5.84649 15.0684 6.01469 15.0684 6.25226C15.0684 6.41436 15.1251 6.55345 15.2381 6.66379C15.351 6.77377 15.5603 6.88411 15.86 6.98259L16.6629 7.24352C17.0698 7.37687 17.3641 7.56232 17.5391 7.79989C17.714 8.03747 17.799 8.3099 17.799 8.61109C17.799 8.86016 17.748 9.08623 17.652 9.28319C17.5504 9.48015 17.4144 9.6541 17.2394 9.7932C17.0641 9.93804 16.8548 10.0423 16.6119 10.1177C16.3565 10.199 16.0909 10.2396 15.8026 10.2396Z" fill="#252F3E"/>
<path d="M16.8712 13.0535C15.0112 14.4617 12.3086 15.2093 9.98456 15.2093C6.72804 15.2093 3.79345 13.975 1.5771 11.9235C1.40179 11.7614 1.5601 11.5411 1.76941 11.6687C4.16674 13.0941 7.12364 13.9578 10.1825 13.9578C12.2462 13.9578 14.5136 13.5175 16.5996 12.6132C16.9109 12.4684 17.1765 12.8217 16.8712 13.0535ZM17.6458 12.1496C17.4082 11.8365 16.074 11.999 15.4691 12.0741C15.2881 12.0971 15.2598 11.935 15.4238 11.8132C16.4866 11.0483 18.2337 11.2683 18.4374 11.5235C18.641 11.7844 18.3807 13.575 17.3858 14.4326C17.2332 14.5659 17.0862 14.4962 17.1539 14.3226C17.3802 13.749 17.8834 12.4565 17.6458 12.1496Z" fill="#FF9900"/>
</svg>
