<svg width="16" height="16" viewBox="0 0 16 16" fill="none" xmlns="http://www.w3.org/2000/svg">
<path fill-rule="evenodd" clip-rule="evenodd" d="M13.6669 7.6227C12.6443 6.05554 10.6581 3.76923 7.99998 3.76923C5.34191 3.76923 3.35571 6.05554 2.33306 7.6227C2.18019 7.85692 2.18019 8.14308 2.33306 8.3773C3.35571 9.94446 5.34191 12.2308 7.99998 12.2308C10.6581 12.2308 12.6443 9.94446 13.6669 8.3773C13.8198 8.14308 13.8198 7.85692 13.6669 7.6227ZM1.32542 9.09086C0.891527 8.42595 0.891527 7.57405 1.32542 6.90914C2.37186 5.30553 4.67742 2.5 7.99998 2.5C11.3226 2.5 13.6281 5.30553 14.6746 6.90914C15.1085 7.57405 15.1085 8.42595 14.6746 9.09086C13.6281 10.6945 11.3226 13.5 7.99998 13.5C4.67742 13.5 2.37186 10.6945 1.32542 9.09086ZM6.78124 7.99992C6.78124 8.69258 7.32636 9.26915 8.0167 9.26915C8.70705 9.26915 9.25217 8.69258 9.25217 7.99992C9.25217 7.30726 8.70705 6.73069 8.0167 6.73069C7.32636 6.73069 6.78124 7.30726 6.78124 7.99992ZM8.0167 5.46146C9.3719 5.46146 10.4706 6.59793 10.4706 7.99992C10.4706 9.40191 9.3719 10.5384 8.0167 10.5384C6.66148 10.5384 5.56286 9.40191 5.56286 7.99992C5.56286 6.59793 6.66148 5.46146 8.0167 5.46146Z" fill="#67717B"/>
</svg>
