<svg width="20" height="20" viewBox="0 0 20 20" fill="none" xmlns="http://www.w3.org/2000/svg">
<path d="M16.3538 8.02369C16.0089 6.79208 15.3164 5.70767 14.3868 4.87869L12.3298 6.93569C13.08 7.54635 13.586 8.44511 13.6781 9.46242V10.1371C13.6898 10.1371 13.7005 10.1335 13.7121 10.1335C14.7509 10.1335 15.5964 10.979 15.5964 12.0178C15.5964 13.0566 14.7509 13.9026 13.7121 13.9026C13.7005 13.9026 13.6898 13.8994 13.6781 13.899V13.9026H10.696H10.0043V16.8104H13.6781V16.8087C13.6898 16.8087 13.7005 16.8104 13.7121 16.8104C16.3547 16.8104 18.5043 14.6604 18.5043 12.0182C18.5043 10.3518 17.6481 8.88264 16.3538 8.02369Z" fill="#1976D2"/>
<path opacity="0.5" d="M8.01573 11.2582L10.1273 9.14665C10.1255 9.14442 10.1237 9.14263 10.1224 9.14084L8.01215 11.2511C8.01305 11.2533 8.01439 11.2555 8.01573 11.2582Z" fill="#FFE082"/>
<path opacity="0.5" d="M8.01573 11.2582L10.1273 9.14665C10.1255 9.14442 10.1237 9.14263 10.1224 9.14084L8.01215 11.2511C8.01305 11.2533 8.01439 11.2555 8.01573 11.2582Z" fill="#90CAF9"/>
<path d="M10.0015 3.19901C6.36301 3.19901 3.40278 6.15924 3.40278 9.79768C3.40278 9.90192 3.41352 10.0035 3.41844 10.1064H6.32633C6.31783 10.0044 6.31067 9.90192 6.31067 9.79768C6.31067 7.76261 7.96638 6.1069 10.0015 6.1069C10.8823 6.1069 11.6916 6.41826 12.3269 6.93497L14.3839 4.87798C13.2171 3.8374 11.684 3.19901 10.0015 3.19901Z" fill="#FF3D00"/>
<path opacity="0.5" d="M6.29403 13.8997H6.29314C6.0198 13.8997 5.76167 13.8384 5.52725 13.7328L3.42014 15.84C4.22227 16.4443 5.21543 16.8076 6.29314 16.8076H6.29403H10.0018V13.8997H6.29403Z" fill="#90CAF9"/>
<path d="M6.29403 13.8997H6.29314C6.0198 13.8997 5.76167 13.8384 5.52725 13.7328L3.42014 15.84C4.22227 16.4443 5.21543 16.8076 6.29314 16.8076H6.29403H10.0018V13.8997H6.29403Z" fill="#4CAF50"/>
<path d="M4.40963 12.0184C4.40963 10.9805 5.25516 10.1349 6.29305 10.1349C7.05492 10.1349 7.71479 10.5926 8.01139 11.2507L10.1216 9.14044C9.24434 7.97639 7.85571 7.22705 6.2926 7.22705C3.65358 7.22705 1.50174 9.37442 1.50174 12.0184C1.50174 13.5801 2.25824 14.9665 3.42005 15.842L5.52716 13.7349C4.87042 13.4405 4.40963 12.7829 4.40963 12.0184Z" fill="#FFC107"/>
</svg>
